<?xml version="1.0" encoding="utf-8"?>
<!-- Generator: Adobe Illustrator 26.5.0, SVG Export Plug-In . SVG Version: 6.00 Build 0)  -->
<svg version="1.1" id="Ebene_1" xmlns="http://www.w3.org/2000/svg" xmlns:xlink="http://www.w3.org/1999/xlink" x="0px" y="0px"
	 viewBox="0 0 512 512" style="enable-background:new 0 0 512 512;" xml:space="preserve">
<style type="text/css">
	.st0{fill:#2E2D2D;}
</style>
<path class="st0" d="M32,0C14.3,0,0,14.3,0,32s14.3,32,32,32v384c-17.7,0-32,14.3-32,32s14.3,32,32,32h176v-64h96v64h176
	c17.7,0,32-14.3,32-32s-14.3-32-32-32V64c17.7,0,32-14.3,32-32S497.7,0,480,0H32z M112,96h32c8.8,0,16,7.2,16,16v32
	c0,8.8-7.2,16-16,16h-32c-8.8,0-16-7.2-16-16v-32C96,103.2,103.2,96,112,96z M224,112c0-8.8,7.2-16,16-16h32c8.8,0,16,7.2,16,16v32
	c0,8.8-7.2,16-16,16h-32c-8.8,0-16-7.2-16-16V112z M368,96h32c8.8,0,16,7.2,16,16v32c0,8.8-7.2,16-16,16h-32c-8.8,0-16-7.2-16-16
	v-32C352,103.2,359.2,96,368,96z M96,208c0-8.8,7.2-16,16-16h32c8.8,0,16,7.2,16,16v32c0,8.8-7.2,16-16,16h-32c-8.8,0-16-7.2-16-16
	V208z M240,192h32c8.8,0,16,7.2,16,16v32c0,8.8-7.2,16-16,16h-32c-8.8,0-16-7.2-16-16v-32C224,199.2,231.2,192,240,192z M352,208
	c0-8.8,7.2-16,16-16h32c8.8,0,16,7.2,16,16v32c0,8.8-7.2,16-16,16h-32c-8.8,0-16-7.2-16-16V208z M349,360.2
	c3.3,12.8-7.8,23.8-21,23.8H184c-13.3,0-24.3-10.9-21-23.8c10.6-41.5,48.2-72.2,93-72.2S338.5,318.7,349,360.2z"/>
</svg>
