<?xml version="1.0" standalone="no"?>
<!DOCTYPE svg PUBLIC "-//W3C//DTD SVG 1.1//EN" "http://www.w3.org/Graphics/SVG/1.1/DTD/svg11.dtd">
<svg xmlns="http://www.w3.org/2000/svg">
<defs >
<font id="KoHo" horiz-adv-x="546" ><font-face
    font-family="KoHo ExtraLight"
    units-per-em="1000"
    panose-1="0 0 3 0 0 0 0 0 0 0"
    ascent="1045"
    descent="-255"
    alphabetic="0" />
<glyph unicode=" " glyph-name="space" horiz-adv-x="223" />
<glyph unicode="!" glyph-name="exclam" horiz-adv-x="238" d="M95 700H143L135 158H103L95 700ZM105 -10T95 0T85 24Q85 38 95 48T119 58Q133 58 143 48T153 24Q153 10 143 0T119 -10Q105 -10 95 0Z" />
<glyph unicode="&quot;" glyph-name="quotedbl" horiz-adv-x="306" d="M80 700H116L111 534H85L80 700ZM190 700H226L221 534H195L190 700Z" />
<glyph unicode="#" glyph-name="numbersign" horiz-adv-x="538" d="M382 450L356 250H473V220H353L325 0H295L323 220H183L155 0H125L153 220H45V250H156L182 450H65V480H185L213 700H243L215 480H355L383 700H413L385 480H493V450H382ZM352 450H212L186 250H326L352
450Z" />
<glyph unicode="$" glyph-name="dollar" horiz-adv-x="608" d="M556 94T496 45T323 -9V-120H295V-10Q212 -9 154 18T50 103L73 124Q116 67 166 43T295 18V340L279 343Q168 364 119 407T70 528Q70 581 98 622T178 686T295 710V820H323V709Q472 701 533 601L509
582Q484 627 437 652T323 681V366Q412 349 462 326T534 269T556 181Q556 94 496 45ZM102 465T148 428T295 372V682Q239 681 195 661T127 606T102 525Q102 465 148 428ZM418 23T471 66T524 184Q524 225 506 252T445 298T323 334V19Q418 23 471 66Z" />
<glyph unicode="%" glyph-name="percent" horiz-adv-x="884" d="M117 310T84 349T50 465V579Q50 656 83 695T183 734Q248 734 282 695T316 579V465Q316 388 283 349T183 310Q117 310 84 349ZM235 333T262 366T289 465V579Q289 644 262 677T183 711Q131 711 104
678T77 579V465Q77 400 104 367T183 333Q235 333 262 366ZM646 700H676L258 0H228L646 700ZM635 -34T602 5T568 121V235Q568 312 601 351T701 390Q766 390 800 351T834 235V121Q834 44 801 5T701 -34Q635 -34 602 5ZM753 -11T780 22T807 121V235Q807 300 780 333T701
367Q649 367 622 334T595 235V121Q595 56 622 23T701 -11Q753 -11 780 22Z" />
<glyph unicode="&amp;" glyph-name="ampersand" horiz-adv-x="638" d="M560 0L484 83Q405 -10 268 -10Q164 -10 105 40T45 179Q45 222 60 255T110 320T207 389Q151 453 132 489T113 568Q113 632 155 670T268 709Q336 709 377 671T418 571Q418 535 404 507T355
451T256 383L260 378L482 136Q537 221 558 368H591Q569 206 506 111L608 0H560ZM212 681T179 650T145 566Q145 530 162 499T235 405Q297 442 329 467T373 515T386 570Q386 620 354 650T267 681Q212 681 179 650ZM389 18T462 108L228 366Q166 329 134 302T90 247T77
180Q77 105 127 62T266 18Q389 18 462 108Z" />
<glyph unicode="&apos;" glyph-name="quotesingle" horiz-adv-x="196" d="M80 700H116L111 534H85L80 700Z" />
<glyph unicode="(" glyph-name="parenleft" horiz-adv-x="275" d="M141 -10T106 98T70 336Q70 466 105 574T220 795L245 779Q171 673 137 566T102 336Q102 214 136 107T245 -107L220 -123Q141 -10 106 98Z" />
<glyph unicode=")" glyph-name="parenright" horiz-adv-x="275" d="M30 -107Q104 -1 138 106T173 336Q173 458 139 565T30 779L55 795Q134 682 169 574T205 336Q205 206 170 98T55 -123L30 -107Z" />
<glyph unicode="*" glyph-name="asterisk" horiz-adv-x="470" d="M425 575H257L341 430L319 417L235 562L151 417L129 430L213 575H45V601H213L129 746L151 759L235 614L319 759L341 746L257 601H425V575Z" />
<glyph unicode="+" glyph-name="plus" horiz-adv-x="699" d="M629 285H364V20H335V285H70V313H335V578H364V313H629V285Z" />
<glyph unicode="," glyph-name="comma" horiz-adv-x="181" d="M108 58T117 47T126 16Q126 -23 113 -53T71 -108L58 -95Q99 -52 98 -5Q91 -10 80 -10Q69 -10 62 -2T55 19Q55 34 65 46T91 58Q108 58 117 47Z" />
<glyph unicode="-" glyph-name="hyphen" horiz-adv-x="371" d="M60 261H311V233H60V261Z" />
<glyph unicode="." glyph-name="period" horiz-adv-x="208" d="M90 -10T80 0T70 24Q70 38 80 48T104 58Q118 58 128 48T138 24Q138 10 128 0T104 -10Q90 -10 80 0Z" />
<glyph unicode="/" glyph-name="slash" horiz-adv-x="387" d="M363 780H392L26 -79H-5L363 780Z" />
<glyph unicode="0" glyph-name="zero" horiz-adv-x="576" d="M180 -10T125 56T70 254V446Q70 577 125 643T288 710Q395 710 450 643T506 446V254Q506 123 451 57T288 -10Q180 -10 125 56ZM474 18T474 254V446Q474 682 288 682Q102 682 102 446V254Q102 18 288
18Q474 18 474 254Z" />
<glyph unicode="1" glyph-name="one" horiz-adv-x="340" d="M240 700V0H208V664L57 574V607L215 700H240Z" />
<glyph unicode="2" glyph-name="two" horiz-adv-x="585" d="M529 28V0H56V28L336 278Q483 408 483 520Q483 598 433 640T289 682Q172 682 101 599L83 625Q120 667 172 688T289 710Q396 710 455 661T515 520Q515 463 479 400T379 278L100 28H529Z" />
<glyph unicode="3" glyph-name="three" horiz-adv-x="605" d="M444 360T489 312T535 192Q535 98 471 44T297 -10Q220 -10 160 14T58 86L79 106Q118 63 173 41T297 18Q395 18 449 64T503 192Q503 273 448 314T286 355Q242 355 181 347L176 375Q294 379 360 395T456
444T485 536Q485 604 435 643T297 682Q175 682 102 600L81 623Q119 666 173 688T297 710Q398 710 457 663T517 536Q517 470 479 428T367 371Q444 360 489 312Z" />
<glyph unicode="4" glyph-name="four" horiz-adv-x="587" d="M435 157H48L35 185L426 700H467V185H552V157H467V0H435V157ZM437 184V667L70 184H437Z" />
<glyph unicode="5" glyph-name="five" horiz-adv-x="599" d="M134 -10T60 76L81 96Q115 56 165 37T291 18Q388 18 442 68T497 207Q497 306 439 353T259 400Q186 400 117 381L97 403L128 700H492V672H154L126 409Q189 428 259 428Q395 428 462 373T529 207Q529
106 465 48T291 -10Q134 -10 60 76Z" />
<glyph unicode="6" glyph-name="six" horiz-adv-x="568" d="M394 410T452 355T511 200Q511 100 453 45T288 -10Q183 -10 124 55T65 235Q65 357 106 455T224 619T408 710L421 684Q294 658 210 563T104 327Q134 368 181 389T288 410Q394 410 452 355ZM380 18T429
65T479 200Q479 288 430 335T288 382Q222 382 174 355T98 278Q97 264 97 235Q97 132 147 75T288 18Q380 18 429 65Z" />
<glyph unicode="7" glyph-name="seven" horiz-adv-x="537" d="M279 356T473 672H70V700H494L507 672Q449 584 340 378T159 0H124Q279 356 473 672Z" />
<glyph unicode="8" glyph-name="eight" horiz-adv-x="568" d="M178 -10T119 42T60 188Q60 261 105 311T231 381Q158 397 121 437T84 540Q84 617 139 663T284 710Q374 710 429 664T484 540Q484 485 445 442T341 381Q423 363 465 314T508 188Q508 94 449 42T284
-10Q178 -10 119 42ZM370 407T411 446T453 540Q453 607 409 645T284 683Q204 683 160 645T115 540Q115 481 152 447T269 397L296 392Q370 407 411 446ZM377 17T427 61T477 188Q477 263 437 304T302 366L279 371Q188 354 140 307T91 188Q91 106 141 62T284 17Q377
17 427 61Z" />
<glyph unicode="9" glyph-name="nine" horiz-adv-x="568" d="M382 710T442 647T503 465Q503 346 463 248T346 83T160 -10L147 16Q270 41 356 135T464 373Q434 332 387 311T280 290Q176 290 117 344T57 500Q57 601 116 655T280 710Q382 710 442 647ZM346 318T394
345T470 422Q471 436 471 465Q471 558 426 620T280 682Q190 682 140 636T89 500Q89 411 139 365T280 318Q346 318 394 345Z" />
<glyph unicode=":" glyph-name="colon" horiz-adv-x="208" d="M90 352T80 362T70 386Q70 400 80 410T104 420Q118 420 128 410T138 386Q138 372 128 362T104 352Q90 352 80 362ZM90 -10T80 0T70 24Q70 38 80 48T104 58Q118 58 128 48T138 24Q138 10 128 0T104
-10Q90 -10 80 0Z" />
<glyph unicode=";" glyph-name="semicolon" horiz-adv-x="206" d="M90 352T80 362T70 386Q70 400 80 410T104 420Q118 420 128 410T138 386Q138 372 128 362T104 352Q90 352 80 362ZM73 -95Q114 -52 113 -5Q106 -10 95 -10Q84 -10 77 -2T70 19Q70 34 80 46T106
58Q123 58 132 47T141 16Q141 -23 128 -53T86 -108L73 -95Z" />
<glyph unicode="&lt;" glyph-name="less" horiz-adv-x="509" d="M389 72T290 147T55 284Q191 345 290 420T439 578V528Q384 456 300 394T113 284Q216 236 300 174T439 40V-10Q389 72 290 147Z" />
<glyph unicode="=" glyph-name="equal" horiz-adv-x="694" d="M70 394H624V366H70V394ZM70 214H624V186H70V214Z" />
<glyph unicode="&gt;" glyph-name="greater" horiz-adv-x="509" d="M70 40Q125 112 209 174T396 284Q293 332 209 394T70 528V578Q120 496 219 421T454 284Q318 223 219 148T70 -10V40Z" />
<glyph unicode="?" glyph-name="question" horiz-adv-x="464" d="M214 248Q214 282 233 311T309 395Q353 437 368 470T384 548Q384 609 341 647T227 685Q91 685 70 550L40 561Q51 634 99 672T227 711Q312 711 363 666T414 548Q414 496 395 457T328 373Q280 330
262 303T244 248V181H214V248ZM215 -10T205 0T195 24Q195 38 205 48T229 58Q243 58 253 48T263 24Q263 10 253 0T229 -10Q215 -10 205 0Z" />
<glyph unicode="@" glyph-name="at" horiz-adv-x="918" d="M599 163Q597 147 597 139Q597 98 620 76T685 54Q733 54 771 83T831 163T853 278Q853 392 808 477T681 608T487 654Q360 654 265 601T117 450T65 220Q65 47 166 -45T457 -138Q534 -138 599 -120T713 -66L728
-89Q618 -164 457 -164Q254 -164 145 -65T35 220Q35 356 91 460T250 622T487 680Q607 680 696 631T834 491T883 278Q883 206 857 149T785 60T680 28Q637 28 608 49T570 107Q512 25 398 25Q325 25 283 72T240 200Q240 226 245 257Q259 358 315 414T461 470Q511 470
548 449T601 390L611 461H641L599 163ZM463 51T503 80T570 161L595 334Q583 387 553 415T459 444Q409 444 370 419T306 351T275 259L272 236Q270 223 270 199Q270 130 304 91T404 51Q463 51 503 80Z" />
<glyph unicode="A" glyph-name="A" horiz-adv-x="640" d="M489 261H151L68 0H35L222 601Q241 662 262 686T320 710Q356 710 377 686T418 601L605 0H572L489 261ZM481 289L382 601Q368 646 355 663T320 680Q299 680 286 663T258 601L159 289H481Z" />
<glyph unicode="B" glyph-name="B" horiz-adv-x="655" d="M100 700H401Q450 700 489 678T551 617T574 529Q574 473 542 430T457 372Q522 354 558 307T595 192Q595 103 539 52T385 0H100V700ZM393 385Q458 385 500 425T542 529Q542 595 502 633T393 672H132V385H393ZM375
28Q466 28 514 70T563 192Q563 269 513 313T375 357H132V28H375Z" />
<glyph unicode="C" glyph-name="C" horiz-adv-x="627" d="M212 -10T141 56T70 244V457Q70 579 138 645T335 711Q497 711 581 608L558 589Q485 683 335 683Q223 683 163 625T102 457V244Q102 135 164 77T343 18Q420 18 475 41T567 114L589 93Q546 39 488 15T343
-10Q212 -10 141 56Z" />
<glyph unicode="D" glyph-name="D" horiz-adv-x="693" d="M100 700H342Q448 700 510 666T600 556T628 350Q628 220 600 144T510 34T342 0H100V700ZM342 28Q437 28 492 59T571 160T596 350Q596 469 571 539T491 640T342 672H132V28H342Z" />
<glyph unicode="E" glyph-name="E" horiz-adv-x="590" d="M175 0T122 50T68 204V496Q68 600 121 650T286 700H531V672H286Q190 672 145 630T100 496V365H477V337H100V204Q100 113 145 71T286 28H540V0H286Q175 0 122 50Z" />
<glyph unicode="F" glyph-name="F" horiz-adv-x="588" d="M75 496Q75 600 128 650T293 700H538V672H293Q197 672 152 630T107 496V343H484V315H107V0H75V496Z" />
<glyph unicode="G" glyph-name="G" horiz-adv-x="658" d="M207 -10T139 56T70 244V457Q70 579 138 645T333 711Q418 711 475 692T582 630L562 607Q485 683 333 683Q222 683 162 625T102 457V244Q102 135 162 77T335 18Q442 18 505 58T569 168V251Q569 305 540
333T456 361H333V388H456Q526 388 563 353T600 251V168Q600 114 568 74T475 12T335 -10Q207 -10 139 56Z" />
<glyph unicode="H" glyph-name="H" horiz-adv-x="716" d="M100 700H132V365H584V700H616V0H584V337H132V0H100V700Z" />
<glyph unicode="I" glyph-name="I" horiz-adv-x="232" d="M100 700H132V0H100V700Z" />
<glyph unicode="J" glyph-name="J" horiz-adv-x="497" d="M161 -10T117 8T35 68L57 90Q86 53 126 36T222 18Q303 18 346 60T390 181V700H422V179Q422 90 369 40T222 -10Q161 -10 117 8Z" />
<glyph unicode="K" glyph-name="K" horiz-adv-x="644" d="M422 428T466 390T532 263L597 0H565L500 263Q487 317 466 347T408 391T309 407L132 233V0H100V700H132V275L562 700H606L336 434Q422 428 466 390Z" />
<glyph unicode="L" glyph-name="L" horiz-adv-x="558" d="M182 0T129 50T75 204V700H107V204Q107 113 152 71T293 28H518V0H293Q182 0 129 50Z" />
<glyph unicode="M" glyph-name="M" horiz-adv-x="812" d="M100 700H125Q180 700 205 652L406 273L607 652Q632 700 687 700H712V0H680V672Q663 671 653 663T632 637L406 209L180 637Q170 655 160 663T132 672V0H100V700Z" />
<glyph unicode="N" glyph-name="N" horiz-adv-x="704" d="M616 700V69Q616 34 602 17T556 0H532L132 660V0H100V700H143L550 30H558Q572 30 578 38T584 69V700H616Z" />
<glyph unicode="O" glyph-name="O" horiz-adv-x="676" d="M209 -10T140 56T70 244V456Q70 578 139 644T338 710Q467 710 536 644T606 456V244Q606 122 537 56T338 -10Q209 -10 140 56ZM451 18T512 76T574 244V456Q574 565 513 623T338 682Q225 682 164 624T102
456V244Q102 135 163 77T338 18Q451 18 512 76Z" />
<glyph unicode="P" glyph-name="P" horiz-adv-x="618" d="M100 700H405Q485 700 534 647T583 508Q583 422 534 369T405 316H132V0H100V700ZM393 344Q467 344 509 388T551 508Q551 584 509 628T393 672H132V344H393Z" />
<glyph unicode="Q" glyph-name="Q" horiz-adv-x="676" d="M467 710T536 644T606 456V244Q606 129 545 64T369 -9Q394 -41 437 -59T538 -81V-111Q387 -104 335 -10Q207 -9 139 57T70 244V456Q70 578 139 644T338 710Q467 710 536 644ZM574 456Q574 565 513 623T338
682Q225 682 164 624T102 456V244Q102 135 163 77T338 18Q451 18 512 76T574 244V456Z" />
<glyph unicode="R" glyph-name="R" horiz-adv-x="649" d="M601 0H567L517 195Q503 249 484 278T428 322T329 336H132V0H100V700H410Q446 700 486 683T554 624T582 518Q582 445 543 400T444 345Q490 329 512 294T551 195L601 0ZM394 364Q465 364 507 403T550 518Q550
595 508 633T394 672H132V364H394Z" />
<glyph unicode="S" glyph-name="S" horiz-adv-x="608" d="M215 -10T156 17T50 103L73 124Q117 66 168 42T299 18Q405 18 464 62T524 184Q524 228 502 256T428 305T279 343Q168 364 119 407T70 528Q70 581 99 622T180 687T299 710Q466 710 533 601L509 582Q482
631 429 656T299 682Q242 682 197 662T127 606T102 525Q102 463 150 426T304 370Q401 353 455 330T532 272T556 181Q556 89 490 40T299 -10Q215 -10 156 17Z" />
<glyph unicode="T" glyph-name="T" horiz-adv-x="574" d="M271 672H35V700H539V672H303V0H271V672Z" />
<glyph unicode="U" glyph-name="U" horiz-adv-x="666" d="M214 -10T145 41T75 179V700H107V179Q107 105 168 62T333 18Q436 18 497 61T559 179V700H591V179Q591 92 522 41T333 -10Q214 -10 145 41Z" />
<glyph unicode="V" glyph-name="V" horiz-adv-x="620" d="M276 -10T256 14T216 99L35 700H68L252 99Q265 54 277 37T310 20Q330 20 342 37T368 99L552 700H585L404 99Q385 38 365 14T310 -10Q276 -10 256 14Z" />
<glyph unicode="W" glyph-name="W" horiz-adv-x="876" d="M838 700L678 0H659Q594 0 579 48L438 494L297 48Q282 0 217 0H198L38 700H71L224 30Q261 31 271 65L438 588L605 65Q615 31 652 30L805 700H838Z" />
<glyph unicode="X" glyph-name="X" horiz-adv-x="559" d="M511 0L279 329L48 0H10L261 355L18 700H55L282 379L508 700H545L300 353L549 0H511Z" />
<glyph unicode="Y" glyph-name="Y" horiz-adv-x="551" d="M261 289L15 700H50L277 320L501 700H536L293 289V0H261V289Z" />
<glyph unicode="Z" glyph-name="Z" horiz-adv-x="588" d="M550 28V0H109Q74 0 57 14T40 59V69L493 672H55V700H532V674L70 60V57Q70 41 78 35T109 28H550Z" />
<glyph unicode="[" glyph-name="bracketleft" horiz-adv-x="331" d="M95 758H276V730H127V-84H276V-112H95V758Z" />
<glyph unicode="\" glyph-name="backslash" horiz-adv-x="374" d="M-5 750H24L379 -79H348L-5 750Z" />
<glyph unicode="]" glyph-name="bracketright" horiz-adv-x="331" d="M55 -84H204V730H55V758H236V-112H55V-84Z" />
<glyph unicode="^" glyph-name="asciicircum" horiz-adv-x="626" d="M244 465T313 676Q382 465 511 303H477Q377 427 313 594Q249 427 149 303H115Q244 465 313 676Z" />
<glyph unicode="_" glyph-name="underscore" horiz-adv-x="518" d="M0 -150H518V-178H0V-150Z" />
<glyph unicode="`" glyph-name="grave" horiz-adv-x="600" d="M187 693H225L306 555H279L187 693Z" />
<glyph unicode="a" glyph-name="a" horiz-adv-x="520" d="M437 37T441 29T458 8L437 -10Q420 1 414 16T407 56V82Q382 36 333 13T212 -10Q141 -10 101 25T60 122Q60 249 226 262L318 269Q365 273 384 285T407 324V331Q407 387 368 420T263 454Q198 454 163 440T103
389L81 406Q103 444 147 462T263 480Q343 480 390 440T437 331V50Q437 37 441 29ZM301 18T354 60T407 174V268Q381 248 305 242L231 237Q90 227 90 122Q90 73 122 46T212 18Q301 18 354 60Z" />
<glyph unicode="b" glyph-name="b" horiz-adv-x="551" d="M231 -10T188 12T121 78V0H91V649Q91 663 87 671T70 691L89 709Q107 698 114 684T121 643V392Q145 435 188 457T288 480Q348 480 394 452T465 371T491 251V219Q491 151 466 99T394 19T288 -10Q231 -10
188 12ZM366 16T413 71T461 219V251Q461 343 414 398T288 454Q220 454 181 423T121 334V136Q142 78 181 47T288 16Q366 16 413 71Z" />
<glyph unicode="c" glyph-name="c" horiz-adv-x="478" d="M166 -10T116 33T65 159V311Q65 387 116 433T254 480Q316 480 358 463T434 404L412 385Q378 424 344 439T254 454Q182 454 139 415T95 311V159Q95 90 138 53T261 16Q314 16 354 33T417 84L438 64Q408 26
365 8T261 -10Q166 -10 116 33Z" />
<glyph unicode="d" glyph-name="d" horiz-adv-x="551" d="M460 37T464 29T481 8L462 -10Q445 0 437 15T428 59Q428 72 429 79Q403 37 360 14T263 -10Q203 -10 157 18T86 99T60 219V251Q60 319 85 371T157 451T263 480Q320 480 363 458T430 392V649Q430 663 426
671T409 691L430 709Q447 698 453 683T460 643V50Q460 37 464 29ZM331 16T370 47T430 136V334Q409 392 370 423T263 454Q185 454 138 399T90 251V219Q90 127 137 72T263 16Q331 16 370 47Z" />
<glyph unicode="e" glyph-name="e" horiz-adv-x="491" d="M363 16T419 78L440 59Q379 -10 265 -10Q164 -10 115 31T65 156V314Q65 391 115 435T251 480Q344 480 392 435T441 304Q441 255 421 236T346 217H95V156Q95 85 137 51T265 16Q363 16 419 78ZM180 454T138
416T95 314V243H346Q384 243 397 256T411 304Q411 377 370 415T251 454Q180 454 138 416Z" />
<glyph unicode="f" glyph-name="f" horiz-adv-x="282" d="M184 674T153 642T122 548V470H257V444H122V0H92V549Q92 622 131 661T242 700H257V674H242Q184 674 153 642Z" />
<glyph unicode="g" glyph-name="g" horiz-adv-x="551" d="M481 462Q468 450 464 442T460 420V-48Q460 -121 422 -160T311 -200H197V-174H311Q368 -174 399 -141T430 -47V88Q406 45 364 23T266 0Q204 0 158 28T86 109T60 229V251Q60 319 85 371T157 451T266 480Q321
480 363 458T430 392V414Q430 440 437 454T462 480L481 462ZM331 26T370 57T430 146V334Q409 392 370 423T263 454Q185 454 138 399T90 251V229Q90 137 137 82T263 26Q331 26 370 57Z" />
<glyph unicode="h" glyph-name="h" horiz-adv-x="535" d="M376 480T414 437T452 322V0H422V312Q422 380 391 417T304 454Q236 454 186 400T121 255V0H91V650Q91 664 87 672T70 692L89 710Q107 699 114 685T121 644V336Q146 406 195 443T312 480Q376 480 414 437Z" />
<glyph unicode="i" glyph-name="i" horiz-adv-x="223" d="M99 601T91 609T82 631Q82 644 90 652T112 661Q125 661 133 653T142 631Q142 618 134 610T112 601Q99 601 91 609ZM111 1T104 15T97 56V470H127V50Q127 37 131 29T148 8L129 -10Q111 1 104 15Z" />
<glyph unicode="j" glyph-name="j" horiz-adv-x="231" d="M116 601T108 609T99 631Q99 644 107 652T129 661Q142 661 150 653T159 631Q159 618 151 610T129 601Q116 601 108 609ZM-50 -193H-6Q52 -193 83 -161T114 -67V470H144V-67Q144 -140 105 -179T-6 -219H-50V-193Z" />
<glyph unicode="k" glyph-name="k" horiz-adv-x="483" d="M320 291T350 261T395 170L437 0H407L365 170Q351 223 325 246T244 273L121 152V0H91V649Q91 663 87 671T70 691L91 709Q108 698 114 684T121 643V191L402 470H443L268 297Q320 291 350 261Z" />
<glyph unicode="l" glyph-name="l" horiz-adv-x="212" d="M105 1T98 15T91 56V650Q91 664 87 672T70 692L89 710Q107 699 114 685T121 644V50Q121 37 125 29T142 8L123 -10Q105 1 98 15Z" />
<glyph unicode="m" glyph-name="m" horiz-adv-x="832" d="M679 480T714 437T749 322V0H719V312Q719 380 691 417T612 454Q546 454 498 400T435 255V0H405V312Q405 380 377 417T298 454Q232 454 184 400T121 255V0H91V420Q91 434 87 442T70 462L89 480Q107 469
114 455T121 414V336Q145 406 192 443T306 480Q361 480 396 441T435 336Q459 406 506 443T620 480Q679 480 714 437Z" />
<glyph unicode="n" glyph-name="n" horiz-adv-x="535" d="M376 480T414 437T452 322V0H422V312Q422 380 391 417T304 454Q236 454 186 400T121 255V0H91V420Q91 434 87 442T70 462L89 480Q107 469 114 455T121 414V336Q146 406 195 443T312 480Q376 480 414 437Z" />
<glyph unicode="o" glyph-name="o" horiz-adv-x="508" d="M165 -10T115 37T65 169V301Q65 385 115 432T254 480Q343 480 393 433T443 301V169Q443 85 393 38T254 -10Q165 -10 115 37ZM330 16T371 56T413 169V301Q413 374 372 414T254 454Q178 454 137 414T95 301V169Q95
96 136 56T254 16Q330 16 371 56Z" />
<glyph unicode="p" glyph-name="p" horiz-adv-x="551" d="M91 420Q91 434 87 442T70 462L89 480Q107 469 114 455T121 414V395Q144 436 187 458T288 480Q348 480 394 452T465 371T491 251V219Q491 151 466 99T394 19T288 -10Q231 -10 188 12T121 78V-219H91V420ZM366
16T413 71T461 219V251Q461 343 414 398T288 454Q220 454 181 423T121 334V136Q142 78 181 47T288 16Q366 16 413 71Z" />
<glyph unicode="q" glyph-name="q" horiz-adv-x="532" d="M430 78Q406 35 363 13T263 -10Q203 -10 157 18T86 99T60 219V251Q60 319 85 371T157 451T263 480Q320 480 363 458T430 395V470H460V-219H430V78ZM331 16T370 47T430 136V334Q409 392 370 423T263 454Q185
454 138 399T90 251V219Q90 127 137 72T263 16Q331 16 370 47Z" />
<glyph unicode="r" glyph-name="r" horiz-adv-x="367" d="M327 480T347 469L337 437Q315 448 286 448Q224 448 179 382T121 207V0H91V420Q91 434 87 442T70 462L91 480Q108 469 114 455T121 414V312Q142 392 188 436T296 480Q327 480 347 469Z" />
<glyph unicode="s" glyph-name="s" horiz-adv-x="442" d="M157 -10T118 8T48 66L69 85Q100 46 131 31T215 16Q285 16 322 43T360 121Q360 165 325 188T199 227Q127 240 94 271T60 357Q60 412 103 446T215 480Q333 480 377 406L355 389Q312 454 215 454Q160 454
125 427T90 355Q90 313 119 290T215 255Q309 239 349 208T390 119Q390 57 345 24T215 -10Q157 -10 118 8Z" />
<glyph unicode="t" glyph-name="t" horiz-adv-x="296" d="M116 444V112Q116 66 139 41T206 16H251V-10H206Q148 -10 117 21T86 112V600Q86 614 82 622T65 642L85 660Q102 649 109 634T116 594V470H251V444H116Z" />
<glyph unicode="u" glyph-name="u" horiz-adv-x="542" d="M449 36T453 28T472 8L451 -10Q433 1 426 15T419 56V125Q394 60 345 25T228 -10Q159 -10 121 34T83 158V470H113V158Q113 90 145 53T236 16Q304 16 354 68T419 206V470H449V50Q449 36 453 28Z" />
<glyph unicode="v" glyph-name="v" horiz-adv-x="438" d="M197 -10T185 -2T162 28T137 99L25 470H55L167 99Q178 63 185 46T199 23T219 16Q231 16 238 22T253 46T271 99L383 470H413L301 99Q286 51 276 29T254 -2T219 -10Q197 -10 185 -2Z" />
<glyph unicode="w" glyph-name="w" horiz-adv-x="631" d="M30 470H60L161 26Q176 27 185 34T201 59L316 420L430 59Q436 42 445 35T470 26L571 470H601L493 0H477Q450 0 432 12T406 46L315 334L225 46Q218 24 200 12T154 0H138L30 470Z" />
<glyph unicode="x" glyph-name="x" horiz-adv-x="422" d="M363 0L211 216L59 0H25L194 241L33 470H67L213 262L359 470H393L230 238L397 0H363Z" />
<glyph unicode="y" glyph-name="y" horiz-adv-x="519" d="M447 471V-68Q447 -141 409 -180T298 -219H184V-193H298Q355 -193 386 -161T417 -67V94Q363 -10 249 -10Q167 -10 127 31T86 159V420Q86 434 82 442T65 462L86 480Q103 469 109 455T116 414V159Q116 89
150 53T249 16Q293 16 332 38T394 99T417 180V471H447Z" />
<glyph unicode="z" glyph-name="z" horiz-adv-x="450" d="M410 26V0H112Q45 0 45 52V67L365 444H55V470H404V446L75 58V50Q75 39 85 33T112 26H410Z" />
<glyph unicode="{" glyph-name="braceleft" horiz-adv-x="311" d="M173 -112T150 -88T126 -10V213Q126 253 106 279T40 323Q85 341 105 367T126 433V656Q126 710 149 734T226 758H256V730H226Q189 730 174 713T158 656V433Q158 395 145 370T100 323Q132 301 145
276T158 213V-10Q158 -50 173 -67T226 -84H256V-112H226Q173 -112 150 -88Z" />
<glyph unicode="|" glyph-name="bar" horiz-adv-x="220" d="M95 770H125V-160H95V770Z" />
<glyph unicode="}" glyph-name="braceright" horiz-adv-x="311" d="M55 -84H85Q122 -84 137 -67T153 -10V213Q153 251 166 276T211 323Q179 345 166 370T153 433V656Q153 696 138 713T85 730H55V758H85Q138 758 161 734T185 656V433Q185 393 205 367T271 323Q226
305 206 279T185 213V-10Q185 -64 162 -88T85 -112H55V-84Z" />
<glyph unicode="~" glyph-name="asciitilde" horiz-adv-x="646" d="M54 329T89 358T180 388Q222 388 253 378T331 345Q373 325 401 315T466 305Q510 305 536 325T572 392H601Q592 336 557 307T466 277Q424 277 393 287T315 320Q273 340 245 350T180 360Q90 360
74 273H45Q54 329 89 358Z" />
<glyph unicode="&#xa0;" glyph-name="uni00A0" horiz-adv-x="223" />
<glyph unicode="&#xa1;" glyph-name="exclamdown" horiz-adv-x="238" d="M105 412T95 422T85 446Q85 460 95 470T119 480Q133 480 143 470T153 446Q153 432 143 422T119 412Q105 412 95 422ZM103 312H135L143 -230H95L103 312Z" />
<glyph unicode="&#xa2;" glyph-name="cent" horiz-adv-x="478" d="M410 28T370 10T274 -10V-120H246V-10Q158 -6 112 37T65 159V311Q65 386 114 432T246 480V590H274V480Q328 477 365 459T434 404L412 385Q381 420 351 435T274 454V16Q372 21 417 84L438 64Q410
28 370 10ZM95 93T133 57T246 16V454Q178 452 137 413T95 311V159Q95 93 133 57Z" />
<glyph unicode="&#xa3;" glyph-name="sterling" horiz-adv-x="541" d="M496 28V0H60V28Q125 66 156 117T187 230Q187 260 174 319H60V347H168Q151 424 151 485Q151 545 175 590T241 659T339 683Q388 683 423 670T486 629L466 607Q443 631 413 643T339 655Q268
655 226 607T183 485Q183 445 187 414T201 347H391V319H208Q219 270 219 230Q219 99 106 28H496Z" />
<glyph unicode="&#xa4;" glyph-name="currency" horiz-adv-x="502" d="M440 193T401 149L452 98L432 78L381 129Q332 89 251 89Q170 89 121 129L70 78L50 98L101 149Q62 193 62 268V290Q62 366 101 409L50 460L70 480L121 429Q170 469 251 469Q332 469 381 429L432
480L452 460L401 409Q440 365 440 290V268Q440 193 401 149ZM327 115T368 155T410 268V290Q410 363 369 403T251 443Q175 443 134 403T92 290V268Q92 195 133 155T251 115Q327 115 368 155Z" />
<glyph unicode="&#xa5;" glyph-name="yen" horiz-adv-x="551" d="M309 316H474V291H294L293 289V184H474V159H293V0H261V159H82V184H261V289L260 291H82V316H245L15 700H50L277 320L501 700H536L309 316Z" />
<glyph unicode="&#xa6;" glyph-name="brokenbar" horiz-adv-x="220" d="M95 770H125V391H95V770ZM95 237H125V-143H95V237Z" />
<glyph unicode="&#xa7;" glyph-name="section" horiz-adv-x="521" d="M464 235T433 199T346 151Q384 132 400 106T416 40Q416 -24 375 -58T257 -92Q199 -92 158 -68T87 7L110 24Q139 -22 175 -43T259 -64Q319 -64 351 -37T384 41Q384 74 372 93T327 126T228 157Q136
179 97 214T57 309Q57 369 93 408T192 456Q155 479 136 510T117 578Q117 639 159 674T275 710Q385 710 426 626L402 608Q364 682 275 682Q216 682 183 654T149 576Q149 532 176 504T263 456Q345 430 387 408T447 358T464 290Q464 235 433 199ZM355 175T393 205T432
288Q432 321 417 343T364 384T250 428Q246 429 238 433Q173 438 131 403T89 310Q89 262 123 235T244 185L285 174Q355 175 393 205Z" />
<glyph unicode="&#xa8;" glyph-name="dieresis" horiz-adv-x="600" d="M211 562T203 570T194 591Q194 603 202 611T223 620Q235 620 243 612T252 591Q252 579 244 571T223 562Q211 562 203 570ZM365 562T357 570T348 591Q348 603 356 611T377 620Q389 620 397
612T406 591Q406 579 398 571T377 562Q365 562 357 570Z" />
<glyph unicode="&#xa9;" glyph-name="copyright" horiz-adv-x="816" d="M302 -10T220 35T93 162T48 350Q48 456 93 538T220 665T408 710Q514 710 596 665T723 538T768 350Q768 244 723 162T596 35T408 -10Q302 -10 220 35ZM508 15T583 56T698 172T739 350Q739
452 699 527T583 644T408 685Q308 685 233 644T118 528T77 350Q77 248 117 173T233 56T408 15Q508 15 583 56ZM309 109T259 152T208 278V430Q208 508 262 553T408 599Q464 599 504 581T577 523L555 504Q523 542 490 557T408 573Q329 573 284 535T238 430V278Q238
209 281 172T404 135Q457 135 497 152T560 203L581 183Q551 145 508 127T404 109Q309 109 259 152Z" />
<glyph unicode="&#xaa;" glyph-name="ordfeminine" horiz-adv-x="432" d="M351 365T354 358T370 341L351 325Q336 336 330 347T324 376V389Q303 359 267 342T183 325Q123 325 92 351T60 427Q60 477 92 504T188 536L260 540Q292 541 307 550T324 579V588Q324 631
295 656T209 681Q130 681 97 630L76 647Q93 675 128 689T210 704Q279 704 315 673T351 588V376Q351 365 354 358ZM245 348T284 380T324 467V538Q305 520 250 517L192 513Q136 509 112 487T87 426Q87 389 111 369T183 348Q245 348 284 380Z" />
<glyph unicode="&#xab;" glyph-name="guillemotleft" horiz-adv-x="521" d="M160 231T212 182T286 83H252Q229 133 170 183T40 260Q110 287 169 337T252 437H286Q264 388 212 339T100 260Q160 231 212 182ZM315 231T367 182T441 83H407Q384 133 325 183T195 260Q265
287 324 337T407 437H441Q419 388 367 339T255 260Q315 231 367 182Z" />
<glyph unicode="&#xac;" glyph-name="logicalnot" horiz-adv-x="655" d="M561 322H65V350H590V124H561V322Z" />
<glyph unicode="&#xad;" glyph-name="uni00AD" horiz-adv-x="420" d="M60 261H360V233H60V261Z" />
<glyph unicode="&#xae;" glyph-name="registered" horiz-adv-x="524" d="M198 274T149 301T72 378T44 492Q44 556 71 605T148 682T262 710Q326 710 375 683T452 606T480 492Q480 428 453 379T377 302T262 274Q198 274 149 301ZM351 295T403 348T456 492Q456 582
404 635T262 689Q173 689 121 636T68 492Q68 402 120 349T262 295Q351 295 403 348ZM168 625H293Q326 625 346 605T366 552Q366 524 351 507T306 485Q323 478 332 467T347 433L365 363H341L323 433Q316 459 303 469T261 479H192V363H168V625ZM288 499Q313 499 327
513T342 552Q342 577 328 590T288 604H192V499H288Z" />
<glyph unicode="&#xaf;" glyph-name="overscore" horiz-adv-x="600" d="M157 593H443V563H157V593Z" />
<glyph unicode="&#xb0;" glyph-name="degree" horiz-adv-x="320" d="M105 476T73 508T40 593Q40 646 72 678T160 710Q215 710 247 678T280 593Q280 540 248 508T160 476Q105 476 73 508ZM204 499T229 524T254 593Q254 635 229 661T160 687Q117 687 92 661T66 593Q66
550 91 525T160 499Q204 499 229 524Z" />
<glyph unicode="&#xb1;" glyph-name="plusminus" horiz-adv-x="699" d="M629 343V315H364V80H335V315H70V343H335V578H364V343H629ZM70 28H629V0H70V28Z" />
<glyph unicode="&#xb2;" glyph-name="uni00B2" horiz-adv-x="395" d="M56 337L217 480Q304 558 304 622Q304 665 276 688T194 711Q126 711 81 661L68 680Q117 734 194 734Q259 734 295 705T331 622Q331 588 310 550T251 478L93 337H339V314H56V337Z" />
<glyph unicode="&#xb3;" glyph-name="uni00B3" horiz-adv-x="417" d="M298 527T322 499T347 429Q347 374 308 342T201 310Q155 310 119 325T58 369L73 385Q95 360 128 347T201 333Q258 333 289 358T320 429Q320 475 289 498T195 522Q172 522 134 517L130 541Q199
543 237 552T292 579T308 632Q308 670 280 690T201 711Q167 711 137 698T86 662L70 679Q93 705 127 719T201 734Q262 734 298 707T335 632Q335 596 314 571T255 535Q298 527 322 499Z" />
<glyph unicode="&#xb4;" glyph-name="acute" horiz-adv-x="600" d="M370 693H408L316 555H289L370 693Z" />
<glyph unicode="&#xb5;" glyph-name="uni00B5" horiz-adv-x="551" d="M458 36T462 28T481 8L460 -10Q442 1 435 15T428 56V125Q403 60 354 25T237 -10Q199 -10 169 8T122 58V-219H92V470H122V158Q122 90 154 53T245 16Q313 16 363 68T428 206V470H458V50Q458 36 462 28Z" />
<glyph unicode="&#xb6;" glyph-name="paragraph" horiz-adv-x="505" d="M265 385H191Q151 385 118 406T65 463T45 542Q45 585 64 621T117 678T191 699H410V-70H378V664H297V-70H265V385Z" />
<glyph unicode="&#xb7;" glyph-name="middot" horiz-adv-x="226" d="M95 264T83 276T70 307Q70 325 82 337T113 350Q131 350 143 338T156 307Q156 289 144 277T113 264Q95 264 83 276Z" />
<glyph unicode="&#xb8;" glyph-name="cedilla" horiz-adv-x="600" d="M338 -54T358 -69T378 -115Q378 -176 288 -176Q246 -176 212 -160L218 -136Q257 -150 287 -150Q319 -150 333 -142T348 -115Q348 -79 292 -79Q285 -79 265 -81L287 7H317L300 -54Q338 -54 358 -69Z" />
<glyph unicode="&#xb9;" glyph-name="uni00B9" horiz-adv-x="275" d="M175 730V314H148V701L57 647V675L151 730H175Z" />
<glyph unicode="&#xba;" glyph-name="ordmasculine" horiz-adv-x="420" d="M142 325T104 361T65 462V567Q65 631 103 667T210 704Q277 704 316 668T355 567V462Q355 398 316 362T210 325Q142 325 104 361ZM266 348T297 377T328 462V567Q328 622 298 651T210 681Q153
681 123 652T92 567V462Q92 407 122 378T210 348Q266 348 297 377Z" />
<glyph unicode="&#xbb;" glyph-name="guillemotright" horiz-adv-x="521" d="M137 387T196 337T326 260Q256 233 197 183T114 83H80Q102 132 154 181T266 260Q206 289 154 338T80 437H114Q137 387 196 337ZM292 387T351 337T481 260Q411 233 352 183T269 83H235Q257
132 309 181T421 260Q361 289 309 338T235 437H269Q292 387 351 337Z" />
<glyph unicode="&#xbc;" glyph-name="onequarter" horiz-adv-x="820" d="M175 730V314H148V701L57 647V675L151 730H175ZM555 700H585L167 0H137L555 700ZM700 57H475L462 86L689 386H726V80H785V57H726V-30H700V57ZM700 80V358L489 80H700Z" />
<glyph unicode="&#xbd;" glyph-name="onehalf" horiz-adv-x="822" d="M175 730V314H148V701L57 647V675L151 730H175ZM555 700H585L167 0H137L555 700ZM483 -7L644 136Q731 214 731 278Q731 321 703 344T621 367Q553 367 508 317L495 336Q544 390 621 390Q686
390 722 361T758 278Q758 244 737 206T678 134L520 -7H766V-30H483V-7Z" />
<glyph unicode="&#xbe;" glyph-name="threequarters" horiz-adv-x="962" d="M298 527T322 499T347 429Q347 374 308 342T201 310Q155 310 119 325T58 369L73 385Q95 360 128 347T201 333Q258 333 289 358T320 429Q320 475 289 498T195 522Q172 522 134 517L130
541Q199 543 237 552T292 579T308 632Q308 670 280 690T201 711Q167 711 137 698T86 662L70 679Q93 705 127 719T201 734Q262 734 298 707T335 632Q335 596 314 571T255 535Q298 527 322 499ZM697 700H727L309 0H279L697 700ZM842 57H617L604 86L831 386H868V80H927V57H868V-30H842V57ZM842
80V358L631 80H842Z" />
<glyph unicode="&#xbf;" glyph-name="questiondown" horiz-adv-x="464" d="M221 412T211 422T201 446Q201 460 211 470T235 480Q249 480 259 470T269 446Q269 432 259 422T235 412Q221 412 211 422ZM151 -226T101 -184T50 -70Q50 -15 70 20T136 97Q184 140 202
167T220 222V289H250V222Q250 188 231 159T155 75Q126 48 112 31T89 -11T80 -70Q80 -130 122 -165T237 -200Q373 -200 394 -65L424 -76Q413 -148 366 -187T237 -226Q151 -226 101 -184Z" />
<glyph unicode="&#xc0;" glyph-name="Agrave" horiz-adv-x="640" d="M489 261H151L68 0H35L222 601Q241 662 262 686T320 710Q356 710 377 686T418 601L605 0H572L489 261ZM481 289L382 601Q368 646 355 663T320 680Q299 680 286 663T258 601L159 289H481ZM207
923H245L326 785H299L207 923Z" />
<glyph unicode="&#xc1;" glyph-name="Aacute" horiz-adv-x="640" d="M489 261H151L68 0H35L222 601Q241 662 262 686T320 710Q356 710 377 686T418 601L605 0H572L489 261ZM481 289L382 601Q368 646 355 663T320 680Q299 680 286 663T258 601L159 289H481ZM390
923H428L336 785H309L390 923Z" />
<glyph unicode="&#xc2;" glyph-name="Acircumflex" horiz-adv-x="640" d="M489 261H151L68 0H35L222 601Q241 662 262 686T320 710Q356 710 377 686T418 601L605 0H572L489 261ZM481 289L382 601Q368 646 355 663T320 680Q299 680 286 663T258 601L159 289H481ZM220
807T256 849T313 930H327Q347 892 383 850T453 785H417Q390 805 359 841T320 895Q313 877 282 841T223 785H187Q220 807 256 849Z" />
<glyph unicode="&#xc3;" glyph-name="Atilde" horiz-adv-x="640" d="M489 261H151L68 0H35L222 601Q241 662 262 686T320 710Q356 710 377 686T418 601L605 0H572L489 261ZM481 289L382 601Q368 646 355 663T320 680Q299 680 286 663T258 601L159 289H481ZM179
820T198 843T254 866Q275 866 292 859T331 839Q364 817 386 817Q411 817 421 828T439 866H463Q460 833 441 811T386 789Q365 789 348 796T309 816Q276 838 254 838Q231 838 220 827T201 785H177Q179 820 198 843Z" />
<glyph unicode="&#xc4;" glyph-name="Adieresis" horiz-adv-x="640" d="M489 261H151L68 0H35L222 601Q241 662 262 686T320 710Q356 710 377 686T418 601L605 0H572L489 261ZM481 289L382 601Q368 646 355 663T320 680Q299 680 286 663T258 601L159 289H481ZM231
792T223 800T214 821Q214 833 222 841T243 850Q255 850 263 842T272 821Q272 809 264 801T243 792Q231 792 223 800ZM385 792T377 800T368 821Q368 833 376 841T397 850Q409 850 417 842T426 821Q426 809 418 801T397 792Q385 792 377 800Z" />
<glyph unicode="&#xc5;" glyph-name="Aring" horiz-adv-x="640" d="M489 261H151L68 0H35L222 601Q241 662 262 686T320 710Q356 710 377 686T418 601L605 0H572L489 261ZM481 289L382 601Q368 646 355 663T320 680Q299 680 286 663T258 601L159 289H481ZM280
773T257 796T234 857Q234 895 257 918T320 941Q360 941 383 918T406 857Q406 819 383 796T320 773Q280 773 257 796ZM348 796T364 812T380 857Q380 885 364 901T320 918Q292 918 276 902T260 857Q260 829 276 813T320 796Q348 796 364 812Z" />
<glyph unicode="&#xc6;" glyph-name="AE" horiz-adv-x="1050" d="M1000 28V0H746Q639 0 586 47T528 190V261H214V265L68 0H35L358 591Q392 655 416 677T474 700Q509 700 531 679T558 617Q611 700 746 700H991V672H746Q654 672 607 628T560 496V365H937V337H560V204Q560
113 605 71T746 28H1000ZM528 289V591Q528 670 476 670Q453 670 436 654T394 591L227 289H528Z" />
<glyph unicode="&#xc7;" glyph-name="Ccedilla" horiz-adv-x="627" d="M548 42T494 17T360 -10L348 -54Q386 -54 406 -69T426 -115Q426 -176 336 -176Q294 -176 260 -160L266 -136Q305 -150 335 -150Q367 -150 381 -142T396 -115Q396 -79 340 -79Q333 -79 313
-81L331 -10Q205 -7 138 59T70 244V457Q70 579 138 645T335 711Q497 711 581 608L558 589Q485 683 335 683Q223 683 163 625T102 457V244Q102 135 164 77T343 18Q420 18 475 41T567 114L589 93Q548 42 494 17Z" />
<glyph unicode="&#xc8;" glyph-name="Egrave" horiz-adv-x="590" d="M175 0T122 50T68 204V496Q68 600 121 650T286 700H531V672H286Q190 672 145 630T100 496V365H477V337H100V204Q100 113 145 71T286 28H540V0H286Q175 0 122 50ZM220 923H258L339 785H312L220 923Z" />
<glyph unicode="&#xc9;" glyph-name="Eacute" horiz-adv-x="590" d="M175 0T122 50T68 204V496Q68 600 121 650T286 700H531V672H286Q190 672 145 630T100 496V365H477V337H100V204Q100 113 145 71T286 28H540V0H286Q175 0 122 50ZM403 923H441L349 785H322L403 923Z" />
<glyph unicode="&#xca;" glyph-name="Ecircumflex" horiz-adv-x="590" d="M175 0T122 50T68 204V496Q68 600 121 650T286 700H531V672H286Q190 672 145 630T100 496V365H477V337H100V204Q100 113 145 71T286 28H540V0H286Q175 0 122 50ZM233 807T269 849T326 930H340Q360
892 396 850T466 785H430Q403 805 372 841T333 895Q326 877 295 841T236 785H200Q233 807 269 849Z" />
<glyph unicode="&#xcb;" glyph-name="Edieresis" horiz-adv-x="590" d="M175 0T122 50T68 204V496Q68 600 121 650T286 700H531V672H286Q190 672 145 630T100 496V365H477V337H100V204Q100 113 145 71T286 28H540V0H286Q175 0 122 50ZM244 792T236 800T227 821Q227
833 235 841T256 850Q268 850 276 842T285 821Q285 809 277 801T256 792Q244 792 236 800ZM398 792T390 800T381 821Q381 833 389 841T410 850Q422 850 430 842T439 821Q439 809 431 801T410 792Q398 792 390 800Z" />
<glyph unicode="&#xcc;" glyph-name="Igrave" horiz-adv-x="232" d="M100 700H132V0H100V700ZM3 923H41L122 785H95L3 923Z" />
<glyph unicode="&#xcd;" glyph-name="Iacute" horiz-adv-x="232" d="M100 700H132V0H100V700ZM186 923H224L132 785H105L186 923Z" />
<glyph unicode="&#xce;" glyph-name="Icircumflex" horiz-adv-x="232" d="M100 700H132V0H100V700ZM16 807T52 849T109 930H123Q143 892 179 850T249 785H213Q186 805 155 841T116 895Q109 877 78 841T19 785H-17Q16 807 52 849Z" />
<glyph unicode="&#xcf;" glyph-name="Idieresis" horiz-adv-x="232" d="M100 700H132V0H100V700ZM27 792T19 800T10 821Q10 833 18 841T39 850Q51 850 59 842T68 821Q68 809 60 801T39 792Q27 792 19 800ZM181 792T173 800T164 821Q164 833 172 841T193 850Q205
850 213 842T222 821Q222 809 214 801T193 792Q181 792 173 800Z" />
<glyph unicode="&#xd0;" glyph-name="Eth" horiz-adv-x="693" d="M448 700T510 666T600 556T628 350Q628 220 600 144T510 34T342 0H100V337H20V363H100V700H342Q448 700 510 666ZM437 28T492 59T571 160T596 350Q596 469 571 539T491 640T342 672H132V363H350V337H132V28H342Q437
28 492 59Z" />
<glyph unicode="&#xd1;" glyph-name="Ntilde" horiz-adv-x="704" d="M616 700V69Q616 34 602 17T556 0H532L132 660V0H100V700H143L550 30H558Q572 30 578 38T584 69V700H616ZM219 820T238 843T294 866Q315 866 332 859T371 839Q404 817 426 817Q451 817 461 828T479
866H503Q500 833 481 811T426 789Q405 789 388 796T349 816Q316 838 294 838Q271 838 260 827T241 785H217Q219 820 238 843Z" />
<glyph unicode="&#xd2;" glyph-name="Ograve" horiz-adv-x="676" d="M209 -10T140 56T70 244V456Q70 578 139 644T338 710Q467 710 536 644T606 456V244Q606 122 537 56T338 -10Q209 -10 140 56ZM451 18T512 76T574 244V456Q574 565 513 623T338 682Q225 682 164
624T102 456V244Q102 135 163 77T338 18Q451 18 512 76ZM225 923H263L344 785H317L225 923Z" />
<glyph unicode="&#xd3;" glyph-name="Oacute" horiz-adv-x="676" d="M209 -10T140 56T70 244V456Q70 578 139 644T338 710Q467 710 536 644T606 456V244Q606 122 537 56T338 -10Q209 -10 140 56ZM451 18T512 76T574 244V456Q574 565 513 623T338 682Q225 682 164
624T102 456V244Q102 135 163 77T338 18Q451 18 512 76ZM408 923H446L354 785H327L408 923Z" />
<glyph unicode="&#xd4;" glyph-name="Ocircumflex" horiz-adv-x="676" d="M209 -10T140 56T70 244V456Q70 578 139 644T338 710Q467 710 536 644T606 456V244Q606 122 537 56T338 -10Q209 -10 140 56ZM451 18T512 76T574 244V456Q574 565 513 623T338 682Q225
682 164 624T102 456V244Q102 135 163 77T338 18Q451 18 512 76ZM238 807T274 849T331 930H345Q365 892 401 850T471 785H435Q408 805 377 841T338 895Q331 877 300 841T241 785H205Q238 807 274 849Z" />
<glyph unicode="&#xd5;" glyph-name="Otilde" horiz-adv-x="676" d="M209 -10T140 56T70 244V456Q70 578 139 644T338 710Q467 710 536 644T606 456V244Q606 122 537 56T338 -10Q209 -10 140 56ZM451 18T512 76T574 244V456Q574 565 513 623T338 682Q225 682 164
624T102 456V244Q102 135 163 77T338 18Q451 18 512 76ZM197 820T216 843T272 866Q293 866 310 859T349 839Q382 817 404 817Q429 817 439 828T457 866H481Q478 833 459 811T404 789Q383 789 366 796T327 816Q294 838 272 838Q249 838 238 827T219 785H195Q197
820 216 843Z" />
<glyph unicode="&#xd6;" glyph-name="Odieresis" horiz-adv-x="676" d="M209 -10T140 56T70 244V456Q70 578 139 644T338 710Q467 710 536 644T606 456V244Q606 122 537 56T338 -10Q209 -10 140 56ZM451 18T512 76T574 244V456Q574 565 513 623T338 682Q225 682
164 624T102 456V244Q102 135 163 77T338 18Q451 18 512 76ZM249 792T241 800T232 821Q232 833 240 841T261 850Q273 850 281 842T290 821Q290 809 282 801T261 792Q249 792 241 800ZM403 792T395 800T386 821Q386 833 394 841T415 850Q427 850 435 842T444 821Q444
809 436 801T415 792Q403 792 395 800Z" />
<glyph unicode="&#xd7;" glyph-name="multiply" horiz-adv-x="494" d="M40 112L228 299L40 487L60 506L247 319L435 506L454 487L267 299L454 112L435 92L247 280L60 92L40 112Z" />
<glyph unicode="&#xd8;" glyph-name="Oslash" horiz-adv-x="676" d="M560 630T583 578T606 456V244Q606 122 537 56T338 -10Q249 -10 187 22L140 -70H106L161 38Q116 70 93 122T70 244V456Q70 578 139 644T338 710Q427 710 489 678L536 770H570L515 662Q560 630
583 578ZM102 125T176 66L475 651Q419 682 338 682Q225 682 164 624T102 456V244Q102 125 176 66ZM574 456Q574 575 500 634L201 49Q257 18 338 18Q451 18 512 76T574 244V456Z" />
<glyph unicode="&#xd9;" glyph-name="Ugrave" horiz-adv-x="666" d="M214 -10T145 41T75 179V700H107V179Q107 105 168 62T333 18Q436 18 497 61T559 179V700H591V179Q591 92 522 41T333 -10Q214 -10 145 41ZM220 923H258L339 785H312L220 923Z" />
<glyph unicode="&#xda;" glyph-name="Uacute" horiz-adv-x="666" d="M214 -10T145 41T75 179V700H107V179Q107 105 168 62T333 18Q436 18 497 61T559 179V700H591V179Q591 92 522 41T333 -10Q214 -10 145 41ZM403 923H441L349 785H322L403 923Z" />
<glyph unicode="&#xdb;" glyph-name="Ucircumflex" horiz-adv-x="666" d="M214 -10T145 41T75 179V700H107V179Q107 105 168 62T333 18Q436 18 497 61T559 179V700H591V179Q591 92 522 41T333 -10Q214 -10 145 41ZM233 807T269 849T326 930H340Q360 892 396 850T466
785H430Q403 805 372 841T333 895Q326 877 295 841T236 785H200Q233 807 269 849Z" />
<glyph unicode="&#xdc;" glyph-name="Udieresis" horiz-adv-x="666" d="M214 -10T145 41T75 179V700H107V179Q107 105 168 62T333 18Q436 18 497 61T559 179V700H591V179Q591 92 522 41T333 -10Q214 -10 145 41ZM244 792T236 800T227 821Q227 833 235 841T256
850Q268 850 276 842T285 821Q285 809 277 801T256 792Q244 792 236 800ZM398 792T390 800T381 821Q381 833 389 841T410 850Q422 850 430 842T439 821Q439 809 431 801T410 792Q398 792 390 800Z" />
<glyph unicode="&#xdd;" glyph-name="Yacute" horiz-adv-x="551" d="M261 289L15 700H50L277 320L501 700H536L293 289V0H261V289ZM347 923H385L293 785H266L347 923Z" />
<glyph unicode="&#xde;" glyph-name="Thorn" horiz-adv-x="618" d="M100 700H132V550H405Q486 550 534 498T583 358Q583 270 535 218T405 166H132V0H100V700ZM393 196Q467 196 509 239T551 358Q551 434 509 477T393 520H132V196H393Z" />
<glyph unicode="&#xdf;" glyph-name="germandbls" horiz-adv-x="539" d="M423 391T451 357T479 274V148Q479 75 436 33T319 -10Q252 -10 204 9V38Q250 18 309 18Q376 18 411 51T447 148V274Q447 324 409 356T309 388H263V416H307Q366 416 401 450T436 544Q436
606 397 639T284 672Q205 672 169 630T132 496V0H100V496Q100 599 145 649T284 700Q369 700 418 658T468 544Q468 492 444 455T376 404Q423 391 451 357Z" />
<glyph unicode="&#xe0;" glyph-name="agrave" horiz-adv-x="520" d="M437 37T441 29T458 8L437 -10Q420 1 414 16T407 56V82Q382 36 333 13T212 -10Q141 -10 101 25T60 122Q60 249 226 262L318 269Q365 273 384 285T407 324V331Q407 387 368 420T263 454Q198 454
163 440T103 389L81 406Q103 444 147 462T263 480Q343 480 390 440T437 331V50Q437 37 441 29ZM301 18T354 60T407 174V268Q381 248 305 242L231 237Q90 227 90 122Q90 73 122 46T212 18Q301 18 354 60ZM150 693H188L269 555H242L150 693Z" />
<glyph unicode="&#xe1;" glyph-name="aacute" horiz-adv-x="520" d="M437 37T441 29T458 8L437 -10Q420 1 414 16T407 56V82Q382 36 333 13T212 -10Q141 -10 101 25T60 122Q60 249 226 262L318 269Q365 273 384 285T407 324V331Q407 387 368 420T263 454Q198 454
163 440T103 389L81 406Q103 444 147 462T263 480Q343 480 390 440T437 331V50Q437 37 441 29ZM301 18T354 60T407 174V268Q381 248 305 242L231 237Q90 227 90 122Q90 73 122 46T212 18Q301 18 354 60ZM333 693H371L279 555H252L333 693Z" />
<glyph unicode="&#xe2;" glyph-name="acircumflex" horiz-adv-x="520" d="M437 37T441 29T458 8L437 -10Q420 1 414 16T407 56V82Q382 36 333 13T212 -10Q141 -10 101 25T60 122Q60 249 226 262L318 269Q365 273 384 285T407 324V331Q407 387 368 420T263 454Q198
454 163 440T103 389L81 406Q103 444 147 462T263 480Q343 480 390 440T437 331V50Q437 37 441 29ZM301 18T354 60T407 174V268Q381 248 305 242L231 237Q90 227 90 122Q90 73 122 46T212 18Q301 18 354 60ZM163 577T199 619T256 700H270Q290 662 326 620T396 555H360Q333
575 302 611T263 665Q256 647 225 611T166 555H130Q163 577 199 619Z" />
<glyph unicode="&#xe3;" glyph-name="atilde" horiz-adv-x="520" d="M437 37T441 29T458 8L437 -10Q420 1 414 16T407 56V82Q382 36 333 13T212 -10Q141 -10 101 25T60 122Q60 249 226 262L318 269Q365 273 384 285T407 324V331Q407 387 368 420T263 454Q198 454
163 440T103 389L81 406Q103 444 147 462T263 480Q343 480 390 440T437 331V50Q437 37 441 29ZM301 18T354 60T407 174V268Q381 248 305 242L231 237Q90 227 90 122Q90 73 122 46T212 18Q301 18 354 60ZM122 590T141 613T197 636Q218 636 235 629T274 609Q307 587
329 587Q354 587 364 598T382 636H406Q403 603 384 581T329 559Q308 559 291 566T252 586Q219 608 197 608Q174 608 163 597T144 555H120Q122 590 141 613Z" />
<glyph unicode="&#xe4;" glyph-name="adieresis" horiz-adv-x="520" d="M437 37T441 29T458 8L437 -10Q420 1 414 16T407 56V82Q382 36 333 13T212 -10Q141 -10 101 25T60 122Q60 249 226 262L318 269Q365 273 384 285T407 324V331Q407 387 368 420T263 454Q198
454 163 440T103 389L81 406Q103 444 147 462T263 480Q343 480 390 440T437 331V50Q437 37 441 29ZM301 18T354 60T407 174V268Q381 248 305 242L231 237Q90 227 90 122Q90 73 122 46T212 18Q301 18 354 60ZM174 562T166 570T157 591Q157 603 165 611T186 620Q198
620 206 612T215 591Q215 579 207 571T186 562Q174 562 166 570ZM328 562T320 570T311 591Q311 603 319 611T340 620Q352 620 360 612T369 591Q369 579 361 571T340 562Q328 562 320 570Z" />
<glyph unicode="&#xe5;" glyph-name="aring" horiz-adv-x="520" d="M437 37T441 29T458 8L437 -10Q420 1 414 16T407 56V82Q382 36 333 13T212 -10Q141 -10 101 25T60 122Q60 249 226 262L318 269Q365 273 384 285T407 324V331Q407 387 368 420T263 454Q198 454
163 440T103 389L81 406Q103 444 147 462T263 480Q343 480 390 440T437 331V50Q437 37 441 29ZM301 18T354 60T407 174V268Q381 248 305 242L231 237Q90 227 90 122Q90 73 122 46T212 18Q301 18 354 60ZM223 543T200 566T177 627Q177 665 200 688T263 711Q303 711
326 688T349 627Q349 589 326 566T263 543Q223 543 200 566ZM291 566T307 582T323 627Q323 655 307 671T263 688Q235 688 219 672T203 627Q203 599 219 583T263 566Q291 566 307 582Z" />
<glyph unicode="&#xe6;" glyph-name="ae" horiz-adv-x="833" d="M705 16T761 78L782 59Q721 -10 607 -10Q526 -10 479 16T417 98Q394 45 342 18T212 -10Q141 -10 101 25T60 122Q60 249 226 262L318 269Q365 273 384 285T407 324V331Q407 387 368 420T263 454Q198
454 163 440T103 389L81 406Q103 444 147 462T263 480Q320 480 362 458T425 394Q446 435 489 457T593 480Q686 480 734 439T783 319Q783 270 763 251T688 232H437V156Q437 85 479 51T607 16Q705 16 761 78ZM437 258H688Q726 258 739 271T753 319Q753 384 712 419T593
454Q522 454 480 416T437 314V258ZM301 18T354 61T407 178V268Q381 248 305 242L231 237Q91 227 91 122Q91 72 122 45T212 18Q301 18 354 61Z" />
<glyph unicode="&#xe7;" glyph-name="ccedilla" horiz-adv-x="478" d="M410 29T371 11T278 -10L266 -54Q304 -54 324 -69T344 -115Q344 -176 254 -176Q212 -176 178 -160L184 -136Q223 -150 253 -150Q285 -150 299 -142T314 -115Q314 -79 258 -79Q251 -79 231
-81L249 -10Q160 -7 113 36T65 159V311Q65 387 116 433T254 480Q316 480 358 463T434 404L412 385Q378 424 344 439T254 454Q182 454 139 415T95 311V159Q95 90 138 53T261 16Q314 16 354 33T417 84L438 64Q410 29 371 11Z" />
<glyph unicode="&#xe8;" glyph-name="egrave" horiz-adv-x="491" d="M363 16T419 78L440 59Q379 -10 265 -10Q164 -10 115 31T65 156V314Q65 391 115 435T251 480Q344 480 392 435T441 304Q441 255 421 236T346 217H95V156Q95 85 137 51T265 16Q363 16 419 78ZM180
454T138 416T95 314V243H346Q384 243 397 256T411 304Q411 377 370 415T251 454Q180 454 138 416ZM138 693H176L257 555H230L138 693Z" />
<glyph unicode="&#xe9;" glyph-name="eacute" horiz-adv-x="491" d="M363 16T419 78L440 59Q379 -10 265 -10Q164 -10 115 31T65 156V314Q65 391 115 435T251 480Q344 480 392 435T441 304Q441 255 421 236T346 217H95V156Q95 85 137 51T265 16Q363 16 419 78ZM180
454T138 416T95 314V243H346Q384 243 397 256T411 304Q411 377 370 415T251 454Q180 454 138 416ZM321 693H359L267 555H240L321 693Z" />
<glyph unicode="&#xea;" glyph-name="ecircumflex" horiz-adv-x="491" d="M363 16T419 78L440 59Q379 -10 265 -10Q164 -10 115 31T65 156V314Q65 391 115 435T251 480Q344 480 392 435T441 304Q441 255 421 236T346 217H95V156Q95 85 137 51T265 16Q363 16 419
78ZM180 454T138 416T95 314V243H346Q384 243 397 256T411 304Q411 377 370 415T251 454Q180 454 138 416ZM151 577T187 619T244 700H258Q278 662 314 620T384 555H348Q321 575 290 611T251 665Q244 647 213 611T154 555H118Q151 577 187 619Z" />
<glyph unicode="&#xeb;" glyph-name="edieresis" horiz-adv-x="491" d="M363 16T419 78L440 59Q379 -10 265 -10Q164 -10 115 31T65 156V314Q65 391 115 435T251 480Q344 480 392 435T441 304Q441 255 421 236T346 217H95V156Q95 85 137 51T265 16Q363 16 419
78ZM180 454T138 416T95 314V243H346Q384 243 397 256T411 304Q411 377 370 415T251 454Q180 454 138 416ZM162 562T154 570T145 591Q145 603 153 611T174 620Q186 620 194 612T203 591Q203 579 195 571T174 562Q162 562 154 570ZM316 562T308 570T299 591Q299
603 307 611T328 620Q340 620 348 612T357 591Q357 579 349 571T328 562Q316 562 308 570Z" />
<glyph unicode="&#xec;" glyph-name="igrave" horiz-adv-x="223" d="M109 1T102 15T95 56V470H125V50Q125 37 129 29T146 8L127 -10Q109 1 102 15ZM-1 693H37L118 555H91L-1 693Z" />
<glyph unicode="&#xed;" glyph-name="iacute" horiz-adv-x="223" d="M109 1T102 15T95 56V470H125V50Q125 37 129 29T146 8L127 -10Q109 1 102 15ZM182 693H220L128 555H101L182 693Z" />
<glyph unicode="&#xee;" glyph-name="icircumflex" horiz-adv-x="223" d="M109 1T102 15T95 56V470H125V50Q125 37 129 29T146 8L127 -10Q109 1 102 15ZM12 577T48 619T105 700H119Q139 662 175 620T245 555H209Q182 575 151 611T112 665Q105 647 74 611T15 555H-21Q12
577 48 619Z" />
<glyph unicode="&#xef;" glyph-name="idieresis" horiz-adv-x="223" d="M109 1T102 15T95 56V470H125V50Q125 37 129 29T146 8L127 -10Q109 1 102 15ZM23 562T15 570T6 591Q6 603 14 611T35 620Q47 620 55 612T64 591Q64 579 56 571T35 562Q23 562 15 570ZM177
562T169 570T160 591Q160 603 168 611T189 620Q201 620 209 612T218 591Q218 579 210 571T189 562Q177 562 169 570Z" />
<glyph unicode="&#xf0;" glyph-name="eth" horiz-adv-x="508" d="M426 389T434 364T443 301V169Q443 85 393 38T254 -10Q165 -10 115 37T65 169V301Q65 385 115 432T254 480Q309 480 350 457L284 561H144V587H267L196 700H230L301 587H408V561H318L400 431Q426
389 434 364ZM413 301Q413 374 372 414T254 454Q178 454 137 414T95 301V169Q95 96 136 56T254 16Q330 16 371 56T413 169V301Z" />
<glyph unicode="&#xf1;" glyph-name="ntilde" horiz-adv-x="535" d="M376 480T414 437T452 322V0H422V312Q422 380 391 417T304 454Q236 454 186 400T121 255V0H91V420Q91 434 87 442T70 462L89 480Q107 469 114 455T121 414V336Q146 406 195 443T312 480Q376
480 414 437ZM128 590T147 613T203 636Q224 636 241 629T280 609Q313 587 335 587Q360 587 370 598T388 636H412Q409 603 390 581T335 559Q314 559 297 566T258 586Q225 608 203 608Q180 608 169 597T150 555H126Q128 590 147 613Z" />
<glyph unicode="&#xf2;" glyph-name="ograve" horiz-adv-x="508" d="M165 -10T115 37T65 169V301Q65 385 115 432T254 480Q343 480 393 433T443 301V169Q443 85 393 38T254 -10Q165 -10 115 37ZM330 16T371 56T413 169V301Q413 374 372 414T254 454Q178 454 137
414T95 301V169Q95 96 136 56T254 16Q330 16 371 56ZM141 693H179L260 555H233L141 693Z" />
<glyph unicode="&#xf3;" glyph-name="oacute" horiz-adv-x="508" d="M165 -10T115 37T65 169V301Q65 385 115 432T254 480Q343 480 393 433T443 301V169Q443 85 393 38T254 -10Q165 -10 115 37ZM330 16T371 56T413 169V301Q413 374 372 414T254 454Q178 454 137
414T95 301V169Q95 96 136 56T254 16Q330 16 371 56ZM324 693H362L270 555H243L324 693Z" />
<glyph unicode="&#xf4;" glyph-name="ocircumflex" horiz-adv-x="508" d="M165 -10T115 37T65 169V301Q65 385 115 432T254 480Q343 480 393 433T443 301V169Q443 85 393 38T254 -10Q165 -10 115 37ZM330 16T371 56T413 169V301Q413 374 372 414T254 454Q178 454
137 414T95 301V169Q95 96 136 56T254 16Q330 16 371 56ZM154 577T190 619T247 700H261Q281 662 317 620T387 555H351Q324 575 293 611T254 665Q247 647 216 611T157 555H121Q154 577 190 619Z" />
<glyph unicode="&#xf5;" glyph-name="otilde" horiz-adv-x="508" d="M165 -10T115 37T65 169V301Q65 385 115 432T254 480Q343 480 393 433T443 301V169Q443 85 393 38T254 -10Q165 -10 115 37ZM330 16T371 56T413 169V301Q413 374 372 414T254 454Q178 454 137
414T95 301V169Q95 96 136 56T254 16Q330 16 371 56ZM113 590T132 613T188 636Q209 636 226 629T265 609Q298 587 320 587Q345 587 355 598T373 636H397Q394 603 375 581T320 559Q299 559 282 566T243 586Q210 608 188 608Q165 608 154 597T135 555H111Q113 590
132 613Z" />
<glyph unicode="&#xf6;" glyph-name="odieresis" horiz-adv-x="508" d="M165 -10T115 37T65 169V301Q65 385 115 432T254 480Q343 480 393 433T443 301V169Q443 85 393 38T254 -10Q165 -10 115 37ZM330 16T371 56T413 169V301Q413 374 372 414T254 454Q178 454
137 414T95 301V169Q95 96 136 56T254 16Q330 16 371 56ZM165 562T157 570T148 591Q148 603 156 611T177 620Q189 620 197 612T206 591Q206 579 198 571T177 562Q165 562 157 570ZM319 562T311 570T302 591Q302 603 310 611T331 620Q343 620 351 612T360 591Q360
579 352 571T331 562Q319 562 311 570Z" />
<glyph unicode="&#xf7;" glyph-name="divide" horiz-adv-x="698" d="M335 510T325 520T315 544Q315 558 325 568T349 578Q363 578 373 568T383 544Q383 530 373 520T349 510Q335 510 325 520ZM70 313H628V285H70V313ZM335 20T325 30T315 54Q315 68 325 78T349
88Q363 88 373 78T383 54Q383 40 373 30T349 20Q335 20 325 30Z" />
<glyph unicode="&#xf8;" glyph-name="oslash" horiz-adv-x="508" d="M443 397T443 301V169Q443 85 393 38T254 -10Q198 -10 156 10L120 -60H86L130 25Q65 73 65 169V301Q65 385 115 432T254 480Q310 480 352 460L388 530H422L378 445Q443 397 443 301ZM95 91T143
51L340 436Q304 454 254 454Q178 454 137 414T95 301V169Q95 91 143 51ZM413 301Q413 379 365 419L168 34Q204 16 254 16Q330 16 371 56T413 169V301Z" />
<glyph unicode="&#xf9;" glyph-name="ugrave" horiz-adv-x="542" d="M449 36T453 28T472 8L451 -10Q433 1 426 15T419 56V125Q394 60 345 25T228 -10Q159 -10 121 34T83 158V470H113V158Q113 90 145 53T236 16Q304 16 354 68T419 206V470H449V50Q449 36 453 28ZM156
693H194L275 555H248L156 693Z" />
<glyph unicode="&#xfa;" glyph-name="uacute" horiz-adv-x="542" d="M449 36T453 28T472 8L451 -10Q433 1 426 15T419 56V125Q394 60 345 25T228 -10Q159 -10 121 34T83 158V470H113V158Q113 90 145 53T236 16Q304 16 354 68T419 206V470H449V50Q449 36 453 28ZM339
693H377L285 555H258L339 693Z" />
<glyph unicode="&#xfb;" glyph-name="ucircumflex" horiz-adv-x="542" d="M449 36T453 28T472 8L451 -10Q433 1 426 15T419 56V125Q394 60 345 25T228 -10Q159 -10 121 34T83 158V470H113V158Q113 90 145 53T236 16Q304 16 354 68T419 206V470H449V50Q449 36 453
28ZM169 577T205 619T262 700H276Q296 662 332 620T402 555H366Q339 575 308 611T269 665Q262 647 231 611T172 555H136Q169 577 205 619Z" />
<glyph unicode="&#xfc;" glyph-name="udieresis" horiz-adv-x="542" d="M449 36T453 28T472 8L451 -10Q433 1 426 15T419 56V125Q394 60 345 25T228 -10Q159 -10 121 34T83 158V470H113V158Q113 90 145 53T236 16Q304 16 354 68T419 206V470H449V50Q449 36 453
28ZM180 562T172 570T163 591Q163 603 171 611T192 620Q204 620 212 612T221 591Q221 579 213 571T192 562Q180 562 172 570ZM334 562T326 570T317 591Q317 603 325 611T346 620Q358 620 366 612T375 591Q375 579 367 571T346 562Q334 562 326 570Z" />
<glyph unicode="&#xfd;" glyph-name="yacute" horiz-adv-x="519" d="M447 471V-68Q447 -141 409 -180T298 -219H184V-193H298Q355 -193 386 -161T417 -67V94Q363 -10 249 -10Q167 -10 127 31T86 159V420Q86 434 82 442T65 462L86 480Q103 469 109 455T116 414V159Q116
89 150 53T249 16Q293 16 332 38T394 99T417 180V471H447ZM334 693H372L280 555H253L334 693Z" />
<glyph unicode="&#xfe;" glyph-name="thorn" horiz-adv-x="551" d="M91 650Q91 664 87 672T70 692L89 710Q107 699 114 685T121 644V395Q144 436 187 458T288 480Q348 480 394 452T465 371T491 251V219Q491 151 466 99T394 19T288 -10Q231 -10 188 12T121 78V-219H91V650ZM366
16T413 71T461 219V251Q461 343 414 398T288 454Q220 454 181 423T121 334V136Q142 78 181 47T288 16Q366 16 413 71Z" />
<glyph unicode="&#xff;" glyph-name="ydieresis" horiz-adv-x="519" d="M447 471V-68Q447 -141 409 -180T298 -219H184V-193H298Q355 -193 386 -161T417 -67V94Q363 -10 249 -10Q167 -10 127 31T86 159V420Q86 434 82 442T65 462L86 480Q103 469 109 455T116 414V159Q116
89 150 53T249 16Q293 16 332 38T394 99T417 180V471H447ZM175 562T167 570T158 591Q158 603 166 611T187 620Q199 620 207 612T216 591Q216 579 208 571T187 562Q175 562 167 570ZM329 562T321 570T312 591Q312 603 320 611T341 620Q353 620 361 612T370 591Q370
579 362 571T341 562Q329 562 321 570Z" />
<glyph unicode="&#x2013;" glyph-name="endash" horiz-adv-x="679" d="M60 261H619V233H60V261Z" />
<glyph unicode="&#x2014;" glyph-name="emdash" horiz-adv-x="1087" d="M60 261H1027V233H60V261Z" />
<glyph unicode="&#x2018;" glyph-name="quoteleft" horiz-adv-x="181" d="M112 625T119 617T126 596Q126 581 116 569T90 557Q73 557 64 568T55 599Q55 638 68 668T110 723L123 710Q82 667 83 620Q91 625 101 625Q112 625 119 617Z" />
<glyph unicode="&#x2019;" glyph-name="quoteright" horiz-adv-x="181" d="M108 710T117 699T126 668Q126 629 113 599T71 544L58 557Q99 600 98 647Q91 642 80 642Q69 642 62 650T55 671Q55 686 65 698T91 710Q108 710 117 699Z" />
<glyph unicode="&#x201a;" glyph-name="quotesinglbase" horiz-adv-x="181" d="M108 58T117 47T126 16Q126 -23 113 -53T71 -108L58 -95Q99 -52 98 -5Q91 -10 80 -10Q69 -10 62 -2T55 19Q55 34 65 46T91 58Q108 58 117 47Z" />
<glyph unicode="&#x201c;" glyph-name="quotedblleft" horiz-adv-x="293" d="M112 625T119 617T126 596Q126 581 116 569T90 557Q73 557 64 568T55 599Q55 638 68 668T110 723L123 710Q82 667 83 620Q91 625 101 625Q112 625 119 617ZM224 625T231 617T238 596Q238
581 228 569T202 557Q185 557 176 568T167 599Q167 638 180 668T222 723L235 710Q194 667 195 620Q203 625 213 625Q224 625 231 617Z" />
<glyph unicode="&#x201d;" glyph-name="quotedblright" horiz-adv-x="293" d="M220 710T229 699T238 668Q238 629 225 599T183 544L170 557Q211 600 210 647Q203 642 192 642Q181 642 174 650T167 671Q167 686 177 698T203 710Q220 710 229 699ZM108 710T117 699T126
668Q126 629 113 599T71 544L58 557Q99 600 98 647Q91 642 80 642Q69 642 62 650T55 671Q55 686 65 698T91 710Q108 710 117 699Z" />
<glyph unicode="&#x201e;" glyph-name="quotedblbase" horiz-adv-x="293" d="M220 58T229 47T238 16Q238 -23 225 -53T183 -108L170 -95Q211 -52 210 -5Q203 -10 192 -10Q181 -10 174 -2T167 19Q167 34 177 46T203 58Q220 58 229 47ZM108 58T117 47T126 16Q126
-23 113 -53T71 -108L58 -95Q99 -52 98 -5Q91 -10 80 -10Q69 -10 62 -2T55 19Q55 34 65 46T91 58Q108 58 117 47Z" />
<glyph unicode="&#x2022;" glyph-name="bullet" horiz-adv-x="418" d="M160 189T125 224T90 308Q90 357 125 392T209 427Q258 427 293 392T328 308Q328 259 293 224T209 189Q160 189 125 224Z" />
<glyph unicode="&#x2039;" glyph-name="guilsinglleft" horiz-adv-x="366" d="M160 231T212 182T286 83H252Q229 133 170 183T40 260Q110 287 169 337T252 437H286Q264 388 212 339T100 260Q160 231 212 182Z" />
<glyph unicode="&#x203a;" glyph-name="guilsinglright" horiz-adv-x="366" d="M137 387T196 337T326 260Q256 233 197 183T114 83H80Q102 132 154 181T266 260Q206 289 154 338T80 437H114Q137 387 196 337Z" />
</font>
</defs>
</svg>
